<?xml version="1.0" encoding="utf-8"?>
<!-- Generator: Adobe Illustrator 23.0.0, SVG Export Plug-In . SVG Version: 6.00 Build 0)  -->
<svg version="1.1" id="Layer_1" xmlns="http://www.w3.org/2000/svg" xmlns:xlink="http://www.w3.org/1999/xlink" x="0px" y="0px"
	 viewBox="0 0 200 78.3" style="enable-background:new 0 0 200 78.3;" xml:space="preserve">
<style type="text/css">
	.st0{opacity:0.5;}
</style>
<g transform="matrix(.2066459 0 0 .2066459 25.297507 -221.6108)">
	<g>
		<path d="M-120,1313.8v134h62.2c25.8,0,40.7-9,40.7-40.2c0-16.3-6.7-27.5-23.6-29.8c13.2-4.2,20.1-10.7,20.1-29.4
			c0-26.1-12.4-34.6-39.5-34.6H-120z M-95,1334.8h29c16.5,0,21,4.6,21,16.6c0,13.4-3.2,18.4-20.3,18.4H-95V1334.8z M-95,1389.8h34.9
			c14.2,0,18.1,5.7,18.1,18.6c0,15.6-6.9,18.4-18,18.4h-35V1389.8z"/>
		<path d="M20,1447.8H-4.5v-66c0-25.1,13.7-33,42.5-33c10.1,0,21,1,21,1c0,12.8-4.2,19.5-17.8,19.5l-7.5,0
			c-8.1,0-13.7,1.6-13.7,12.5V1447.8z"/>
		<g transform="translate(0 888.47533)">
			<path d="M95,559.4H70.5v-98H95V559.4z"/>
			<path d="M95,452.9H70.5v-7.5c0-10.1,6.4-17,18.5-17h6V452.9z"/>
		</g>
		<g transform="translate(127 888.47533)">
			<path d="M95,559.4H70.5v-98H95V559.4z"/>
			<path d="M95,452.9H70.5v-7.5c0-10.1,6.4-17,18.5-17h6V452.9z"/>
		</g>
		<path d="M181,1427.8l0.5,19.2c0,0-9.2,1.8-19.5,1.8c-19.4,0-36.5-5.9-36.5-33v-46.5h-18v-19.5h18v-16c0-10,6.1-17,19.5-17h5v33h34
			v4c0,10.9-5.9,15.5-16,15.5h-18v46.5c0,5.6,2.3,13,15,13C170,1428.8,181,1427.8,181,1427.8z"/>
		<path d="M238.6,1447l1-20.2c0,0,15.4,1.4,33,1.4c17,0,20.4-4.2,20.4-9c0-20.8-57,1-57-42c0-21.5,14.6-28.4,43-28.4
			c11.8,0,33,2,33,2c0,16.8-9.1,18.4-14.9,18.4c-7.3,0-17.7-1.4-24.1-1.4c-9,0-13.4,3.4-13.4,9c0,20.4,57.4,0.5,57.4,43
			c0,18.5-14.6,29-42,29C253.1,1448.8,238.6,1447,238.6,1447L238.6,1447z"/>
		<path d="M693.2,1447l1-20.2c0,0,15.4,1.4,33,1.4c17,0,20.4-4.2,20.4-9c0-20.8-57,1-57-42c0-21.5,14.6-28.4,43-28.4
			c11.8,0,33,2,33,2c0,16.8-9.1,18.4-14.9,18.4c-7.3,0-17.7-1.4-24.1-1.4c-9,0-13.4,3.4-13.4,9c0,20.4,57.4,0.5,57.4,43
			c0,18.5-14.6,29-42,29C707.6,1448.8,693.2,1447,693.2,1447L693.2,1447z"/>
		<path d="M353,1447.8h-24v-121.2c0-12.9,9.9-15.8,19-15.8h5v49.8c7.1-4.2,25.2-11.8,41-11.8c24.2,0,27,17.9,27,33.6v65.4h-24v-65
			c0-6.2-3.9-12-12-12c-9,0-24.6,6-32,9V1447.8z"/>
		<path d="M525,1370.8h51v72.1c0,0-38.4,5.9-55.9,5.9c-42.2,0-53.1-23.4-53.1-62v-16c0-49.7,19.8-58,57.5-58
			c19.8,0,47.3,4.8,47.3,4.8c0,12.7-7.7,19.2-17.2,19.2c-7.9,0-20.2-3-31.7-3c-19.6,0-30,5-30,41v6.4c0,16.5-3.1,45.6,28,45.6
			c13.2,0,30-2,30-2v-34h-11c-9.3,0-15-4.9-15-15V1370.8z"/>
		<path d="M644,1349.8c-23.7,0-45,2.4-45,2.4c0,12,2.8,18.5,14.3,18.5c5.7,0,16.6-0.9,28.7-0.9c8.9,0,11,4.7,11,10v4.5
			c-30.9,3.1-64,1.2-64,33.2c0,20.7,6.6,31.3,35,31.3c26.9,0,53-3,53-3v-64C677,1362.2,672.7,1349.8,644,1349.8z M653,1401.8v28
			c0,0-15.6,1-26,1c-10.6,0-15-3.9-15-12C612,1404.4,625.7,1404.6,653,1401.8z"/>
	</g>
	<path d="M622,1186.4c8.6-35.1,35.2-52.4,113.1-76.1c40.3-13.1,75.7-24.5,107.9-35.4c0,116-43.3,173.1-124.5,191
		c27.4-21.6,48.5-63.8,48.5-130C653.9,1174,645.7,1172.7,622,1186.4L622,1186.4z"/>
	<path class="st0" d="M649.5,1290.8c-38.9,0-61.1-27.5-61.1-55.7c0-18.5,11.7-38.2,33.6-48.8c-8.1,50,34.5,91.7,96.5,79.5
		C704.8,1276.1,674.7,1290.8,649.5,1290.8z"/>
</g>
</svg>
