<?xml version="1.0" encoding="utf-8"?>
<!-- Generator: Adobe Illustrator 23.0.0, SVG Export Plug-In . SVG Version: 6.00 Build 0)  -->
<svg version="1.1" id="Layer_1" xmlns="http://www.w3.org/2000/svg" xmlns:xlink="http://www.w3.org/1999/xlink" x="0px" y="0px"
	 viewBox="0 0 197.6 69.8" style="enable-background:new 0 0 197.6 69.8;" xml:space="preserve">
<path d="M34.6,0C15.5,0.2,0,15.7,0,34.9c0,19.3,15.6,34.9,34.9,34.9h127.8c19.2,0,34.7-15.5,34.9-34.6v-0.6
	C197.4,15.6,182.1,0.2,163,0L34.6,0z M3.4,34.9c0-17.4,14.1-31.5,31.5-31.5h127.8c17.4,0,31.5,14.1,31.5,31.5
	c0,17.4-14.1,31.5-31.5,31.5H34.9C17.5,66.4,3.4,52.3,3.4,34.9"/>
<path d="M123.8,26.4l0,9.7c0,2-1.3,3.6-3.7,3.6c-2.4,0-3.7-1.7-3.7-3.6V24.5c0-0.3-0.3-0.6-0.6-0.6h-2.1c-1.4,0-2.5,1.1-2.5,2.5
	l0,9.7c0,2-1.3,3.6-3.7,3.6c-2.3,0-3.7-1.6-3.7-3.6l0-11.6c0-0.3-0.3-0.6-0.6-0.6h-2.1c-1.4,0-2.5,1.1-2.5,2.5v9.7
	c0,5,3.2,8.8,8.7,8.8c2.5,0,4.9-1,6.5-2.6c1.6,1.6,4.1,2.6,6.6,2.6c5.8,0,8.6-4.2,8.6-8.8l0-11.6c0-0.3-0.3-0.6-0.6-0.6h-2.1
	C124.9,23.9,123.8,25,123.8,26.4"/>
<path d="M163.1,23.9c-4.7,0-8.4,3.4-8.4,8.8v9.7c0,1.4,1.1,2.5,2.5,2.5h2.1c0.3,0,0.6-0.3,0.6-0.6V32.5c0-2.1,1.6-3.6,3.5-3.5h6.8
	c1.4,0,2.5-1.1,2.5-2.5v-1.9c0-0.3-0.3-0.6-0.6-0.6H163.1z"/>
<path d="M82.9,23.9c-5.1,0-8.4,3.9-8.4,8.6v3.6c0,5.2,3.5,8.7,8.4,8.7h5.6c4.7,0,8.4-3.4,8.4-8.7v-3.6c0-4.7-3.3-8.6-8.4-8.6H82.9z
	 M79.7,36.1v-3.4c0-2.1,1.4-3.7,3.5-3.7h5c2,0,3.5,1.5,3.5,3.7v3.4c0,2.2-1.5,3.7-3.5,3.7h-5C81.1,39.7,79.7,38.1,79.7,36.1"/>
<path d="M52,23.9v18.4c0,1.4,1.1,2.5,2.5,2.5h2.1c0.3,0,0.6-0.3,0.6-0.6v-4.8h8.4c4.3,0,7.4-2.9,7.4-7.7c0-4.7-3.1-7.8-7.4-7.8
	L52,23.9z M57.2,29h8.2c1.4,0,2.4,1.2,2.4,2.6c0,1.4-0.9,2.7-2.4,2.7h-8.2V29z"/>
<path d="M35.9,23.9c-4.8,0-8.4,3.6-8.4,8.8v9.7c0,1.4,1.1,2.5,2.5,2.5h2.1c0.4,0,0.6-0.3,0.6-0.6V32.6c0-2.2,1.5-3.6,3.5-3.6h7.9
	v13.3c0,1.4,1.1,2.5,2.5,2.5h2.1c0.3,0,0.6-0.3,0.6-0.6V23.9H35.9z"/>
<path d="M139.3,23.9c-4.7,0-8.4,3.5-8.4,8.8v3.5c0,5.2,3.6,8.7,8.3,8.7h10.4c1.4,0,2.5-1.1,2.5-2.5l0-2c0-0.4-0.3-0.6-0.6-0.6h-12.3
	c-1.7,0-3.1-1.1-3.1-2.5h10c3.8,0,6.7-3,6.7-6.8c0-3.5-3.1-6.5-6.7-6.5L139.3,23.9z M139.3,29h6.7c0.9,0,1.6,0.7,1.6,1.6
	c0,0.8-0.7,1.6-1.6,1.6l-9.8,0C136.2,30.2,137.2,29,139.3,29"/>
</svg>
