<?xml version="1.0" encoding="utf-8"?>
<!-- Generator: Adobe Illustrator 23.0.0, SVG Export Plug-In . SVG Version: 6.00 Build 0)  -->
<svg version="1.1" id="Layer_1" xmlns="http://www.w3.org/2000/svg" xmlns:xlink="http://www.w3.org/1999/xlink" x="0px" y="0px"
	 viewBox="0 0 444 166" style="enable-background:new 0 0 444 166;" xml:space="preserve">
<style type="text/css">
	.st0{fill:#666666;}
	.st1{fill:#1D1D1B;}
</style>
<path class="st0" d="M39.9,68.7c-0.1,4.3,1.7,10.2,6.5,15c16.4,16.4,61.4,6.8,34.2-72.7C78.2,41.6,40.4,39.5,39.9,68.7"/>
<path class="st0" d="M69.7,68.7c-0.1,4.3,1.7,10.2,6.5,15c16.4,16.4,61.4,6.8,34.2-72.7C108,41.6,70.2,39.5,69.7,68.7"/>
<path id="SVGID_1_" class="st0" d="M10.4,68.7L10.4,68.7v0.4c0,4.2,1.9,9.9,6.5,14.6c1.6,1.6,3.4,2.9,5.5,4
	c-1.3,6.5-1.8,14-0.9,22.6l4.6-0.2c-1.7-8-1.8-15-1-21.1c19.3,7.2,49.4-9.4,26-77.9C48.7,41.6,11,39.5,10.4,68.7"/>
<path class="st1" d="M278.7,121.7c0-4.5-3.6-9.8-10.3-9.8h-14.5v32.6h6.7v-28.1h5.3c5.1,0,5.9,3.8,5.9,5.6c0,3-1.1,5.5-5.7,5.5
	c-2.3,0-3.3,0.5-3.4,1.8c-0.1,1.2,1.4,2,2.9,2.2C272.2,132.8,278.7,128.8,278.7,121.7 M417.4,129.4c2.5-0.7,6.7-2.9,6.7-8.6
	c0-4.5-3.5-9-10.3-9h-14.5v32.6h6.7v-28.1h5.3c5.1,0,5.8,3,5.8,4.8c0,3-2.1,4.9-5.6,4.9c-2.3,0-3.6,0.9-3.6,2.4c0,0.8,0.5,1.9,3,2.3
	c3.1,0.5,4.3,3.5,5.9,7.3c0,0,1.3,3.2,1.8,4.2s0.9,2.2,3.2,2.2h5.2l-2.3-5C422.6,134.4,420.7,131.4,417.4,129.4 M377.1,129.9h15.7
	v-4.5h-15.7v-9.1h16.5v-4.4h-23.2v32.6h23.5V140h-16.8V129.9z M298.3,111.4c-12.1,0-17.4,8.4-17.4,16.7s5.4,16.8,17.4,16.8
	c11.9,0,17.4-8.7,17.4-16.8C315.7,119.9,310.4,111.4,298.3,111.4 M298.3,139.6c-6.7,0-10.5-4.2-10.5-11.5s3.8-11.5,10.5-11.5
	c6.6,0,10.4,4.2,10.4,11.5C308.8,135.5,305,139.6,298.3,139.6 M363.4,111.9c-2.3,0-2.5,1.2-2.9,2.2l-7.4,23.8l-7.4-26h-6.1
	c-2.2,0-2.5,1.1-2.8,2.1l-7.1,24.1l-7-26.2h-7.4l9.6,32.6h8.6l7.6-25.7l7.2,25.7h8.5l9.9-32.6H363.4z M36.3,142.1l0.3-4.7
	c3.2,1.4,7,2.3,9.1,2.2c1.9-0.1,7.1,0.1,6.8-4.4c-0.3-5.6-16.1-4.5-16.1-14.7c0-7,7.4-9.5,13.3-9.5c2.2,0,5.5,0.6,7.6,1.2l-0.1,2.2
	c0,1.3-1.2,2-2.4,1.8c-1.7-0.3-3.5-0.5-5-0.4c-1.9,0.1-6.6,0.4-6.3,3.8c0.3,5,16.3,4.2,16.3,15.5c0,6.8-6.7,9.3-13.8,9.3
	C43.3,144.5,39.2,143.7,36.3,142.1 M79.7,115.9c2.2-0.1,3.7,0.1,4.9,0.3c1.4,0.3,2.5-0.4,2.5-1.7l0.1-2.2c-2-0.6-4.9-1.3-8-1.3
	c-12.1,0-17.4,8.4-17.4,16.7s5.4,16.7,17.4,16.7c3.1,0,6-0.6,8-1.3l-0.3-4.6c-1.9,0.6-3.5,1.1-7.3,1c-6.7-0.2-10.9-4.6-10.9-11.8
	C68.8,120.5,73,116.1,79.7,115.9 M105.5,111c-12.1,0-17.4,8.4-17.4,16.7s5.4,16.7,17.4,16.7c11.9,0,17.4-8.7,17.4-16.7
	C122.9,119.5,117.5,111,105.5,111 M105.5,139.2c-6.7,0-10.5-4.2-10.5-11.5s3.8-11.5,10.5-11.5c6.6,0,10.4,4.2,10.4,11.5
	C115.9,135.1,112.1,139.2,105.5,139.2 M177,111.9h6.7v32.6H177V111.9z M146.6,111.9h-24.2v4.4h9v28.1h6.7v-28.1h8.5V111.9z
	 M173.1,111.9h-24.2v4.4h9v28.1h6.7v-28.1h8.5V111.9z M239.8,111.9v13.5h-15.5v-13.5h-6.7v32.5h6.7v-14.6h15.5v14.6h6.7v-32.5H239.8
	z M189.6,142.1l0.3-4.7c3.2,1.4,7,2.3,9.1,2.2c1.9-0.1,7.1,0.1,6.8-4.4c-0.3-5.6-16.1-4.5-16.1-14.7c0-7,7.4-9.5,13.3-9.5
	c2.2,0,5.5,0.6,7.6,1.2l-0.1,2.2c0,1.3-1.2,2-2.4,1.8c-1.7-0.3-3.5-0.5-5-0.4c-1.9,0.1-6.6,0.4-6.3,3.8c0.3,5,16.3,4.2,16.3,15.5
	c0,6.8-6.7,9.3-13.8,9.3C196.7,144.5,192.6,143.7,189.6,142.1"/>
<path id="SVGID_3_" class="st1" d="M10.4,68.7L10.4,68.7v0.4c0,4.2,1.9,9.9,6.5,14.6c1.6,1.6,3.4,2.9,5.5,4c1-5.3,2.6-9.9,4.3-14.1
	c-3.1-4.9-6.4-14.5-6.2-21.1l0,0C22,58.1,25,65.8,28,70.9c2.4-4.9,5.2-9.3,8-13.6c-3.2-4.7-4-12.5-3.9-14.1l0,0
	c0.8,2.7,2.4,7.4,5.3,12c2.7-4,5.3-8,7.5-12.3c-1.4-2.9-2.4-7.5-2.2-8.9c0.6,2,2.2,4.6,3.6,6.2c2.9-5.8,4.4-10.5,5-13.5
	C52,22,52.1,16.8,51.2,11C48.7,41.6,11,39.5,10.4,68.7"/>
<path id="SVGID_7_" class="st1" d="M39.9,68.7c-0.1,4.3,1.7,10.2,6.5,15c0.6,0.6,1.2,1.1,1.8,1.6C56.5,78.5,62,64.7,58.6,41
	C49.2,47.7,40.2,54.5,39.9,68.7"/>
<path id="SVGID_11_" class="st1" d="M69.7,68.7c-0.1,4.3,1.7,10.2,6.5,15c0.5,0.5,1.1,1,1.6,1.5c8.2-6.8,13.6-20.6,10.3-43.9
	C78.8,47.9,70,54.7,69.7,68.7"/>
</svg>
