<?xml version="1.0" encoding="utf-8"?>
<!-- Generator: Adobe Illustrator 23.0.0, SVG Export Plug-In . SVG Version: 6.00 Build 0)  -->
<svg version="1.1" id="Layer_1" xmlns="http://www.w3.org/2000/svg" xmlns:xlink="http://www.w3.org/1999/xlink" x="0px" y="0px"
	 viewBox="0 0 1000 347.5" style="enable-background:new 0 0 1000 347.5;" xml:space="preserve">
<style type="text/css">
	.st0{fill:none;}
	.st1{opacity:0.5;}
</style>
<rect x="-1759.4" y="-4461.1" class="st0" width="5774.7" height="8167"/>
<path d="M456.1,311.9c-20.8,0-38.8-2.7-54-8c-15.2-5.6-29.1-14.9-41.7-27.8l27.3-27c9.4,9.4,19.6,16.1,30.8,20.2
	c11.4,3.8,24.2,5.7,38.4,5.7c17.8,0,31.4-3.6,41.1-10.7c9.8-7.3,14.8-17.6,14.8-30.8c0-12.4-2.7-20.9-8-25.5c-5-4.8-9.7-8.1-14-9.9
	c-4.3-1.7-10.5-3.1-18.2-4.1l-32-4.6c-22-3-39.4-10.5-52-22.4c-12.7-11.9-19-28.8-19-50.9c0-23.9,8.1-43,24.3-57.4
	C410,44,432,36.7,459.9,36.7c34,0,61.9,10.2,84,30.7l-26.3,25.9c-7.7-7.6-16.5-12.9-26.1-16c-9.7-3.3-20.6-4.9-32.7-4.9
	c-15.5,0-27.6,4-36.5,12.1c-8.6,7.9-12.9,17.9-12.9,30.1c0,10.6,3.4,19.1,10.2,25.5c7.1,6.1,17.3,10.1,30.5,12.1l30.8,4.6
	c12.1,1.8,22,4.3,29.6,7.6c7.9,3.1,17,9.2,27.4,18.3c10.4,9.1,15.6,25.7,15.6,49.8c0,24.6-9,44-27,58.2
	C508.6,304.8,485.2,311.9,456.1,311.9 M672.7,311.9c-20.8,0-38.7-2.7-53.9-8c-15.2-5.6-29.1-14.9-41.8-27.8l27.3-27
	c9.4,9.4,19.6,16.1,30.8,20.2c11.4,3.8,24.2,5.7,38.4,5.7c17.7,0,31.4-3.6,41.1-10.7c9.8-7.3,14.8-17.6,14.8-30.8
	c0-12.4-2.7-20.9-8.1-25.5c-5-4.8-9.7-8.1-14.1-9.9c-4.3-1.7-10.3-3.1-18.2-4.1l-31.9-4.6c-22-3-39.4-10.5-52.1-22.4
	c-12.7-11.9-19-28.8-19-50.9c0-23.9,8.1-43,24.3-57.4c16.2-14.7,38.3-22.1,66.1-22.1c34,0,61.9,10.2,84,30.7l-26.3,25.9
	c-7.8-7.6-16.6-12.9-26.2-16c-9.6-3.3-20.5-4.9-32.7-4.9c-15.5,0-27.6,4-36.6,12.1c-8.5,7.9-12.9,17.9-12.9,30.1
	c0,10.6,3.4,19.1,10.3,25.5c7.1,6.1,17.2,10.1,30.4,12.1l30.8,4.6c12.1,1.8,22,4.3,29.6,7.6c7.8,3.1,17,9.2,27.4,18.3
	c10.4,9.1,15.6,25.7,15.6,49.8c0,24.6-9,44-27,58.2C725.3,304.8,701.9,311.9,672.7,311.9 M826.5,309.6V38.9h173v36.9H867.6v79h112.5
	v36.5H867.6v81.4h131.9v36.9H826.5z"/>
<rect x="-1759.4" y="-4461.1" class="st0" width="5774.7" height="8167"/>
<g transform="matrix(9.7007964 0 0 -9.7007964 -1759.39291 3705.90156)">
	<path class="st1" d="M194.6,349.3c-1.2,2,0.9,4.3,3.7,4.8c2.5,0.4,10.4,1.7,13.8,5.4c5.4,5.8,3.9,17.6-9.2,21.5
		c2.5-1.2,7.1-4,6.8-8.1c-0.3-3.7-2.6-4.6-5.5-5.4c-2.9-0.8-8.8-2.1-12.4-6.1c-6-6.6-2.5-12.1,6.4-15.2
		C198.3,346.3,195.6,347.5,194.6,349.3"/>
	<path d="M203,381c-1.4,0.4-3,0.8-4.7,1c0,0,2.7-1.3,3.7-3.1c1-1.8-0.6-3.9-3.7-4.7c-2.9-0.8-10.4-1.5-14-5.4
		c-6-6.6-3.4-20.3,14-22.5c-8.9,3.1-12.5,8.6-6.4,15.2c3.6,3.9,9.5,5.3,12.4,6.1c2.9,0.8,5.3,1.7,5.5,5.4
		C210.1,377,205.5,379.8,203,381"/>
</g>
</svg>
